<svg id="图层_1" data-name="图层 1" xmlns="http://www.w3.org/2000/svg" viewBox="0 0 320 320"><rect width="320" height="320" style="fill:#fff"/><path d="M166.45,406.81l-17.39-23.15c-2.89-3.92-2.49-5,2.4-5.23a10.53,10.53,0,0,0,8.2-4.1c4.79-6.07,11.39-9.81,18.79-12.42,19.58-6.82,39-7.56,58.26,1.21,9.79,4.39,14.49,8.87,18.29,18.49.7-3.08,1.6-5.51,1.9-7.94,1-9.61,1.7-19.14,0-28.85-1-5.78-3.9-8-9.3-9.61-14.49-4.2-29.18-8.31-44.57-7.75a59.69,59.69,0,0,0-17.19,3.45c-5.1,1.78-9.89,4.77-14.49,7.57a25.62,25.62,0,0,0-10.49,11.76,10.26,10.26,0,0,1-4.8,4.67c-3,1.12-5-1.12-4.2-4.11a11.08,11.08,0,0,1,1.9-3.73c5.3-6.26,5.8-13.63,4.2-20.73a171.81,171.81,0,0,0-7.9-25.86c-5.59-14.47-13.89-27.63-27-37.44a97.82,97.82,0,0,0-17.69-10.54c-2.5-1.31-6.19-.66-9.29-.94-1.3-.09-2.7-.37-4.1-.47.6-1.3.8-2.8,1.8-3.82,3.9-4.11,8.29-7.94,12.09-12.23,12.59-14.1,21.69-30,25.09-48.27a25.68,25.68,0,0,0-.8-12.6c-2.6-7.38-6.3-14.47-9.8-21.57-.7-1.4-2.3-2.42-3.6-3.36s-3.59-1.21-3.69-2.24c-.6-2.24-.1-4.85-.1-7.28a11.31,11.31,0,0,1,1.9,0c5.79,6.26,13.89,6.82,21.68,7.1A142.05,142.05,0,0,0,204.93,133a96.09,96.09,0,0,0,38.18-33C245.2,97,245.5,93,246.8,89.5c.3-.94.7-2.15,1.5-2.43s2,.37,3,.74c.5.19.8.84,1.1,1.31,12.39,20,32.08,31.46,54.17,40,12.29,4.67,24.78,9.34,38.17,10.83,9.3.93,18.69,1.12,28-.93,3.8-.84,6.8-2.43,9-5.6.6-.84,2.6-1.68,3.3-1.31,1.7.65,3.39,1.87,2.4,4.29-15.4,36.88-12.5,73.19,4.39,109,4.7,9.9,9.9,19.42,18.49,26.89.9.74,1.2,2.14,1.7,3.26a20.87,20.87,0,0,1-3.9,1.22c-36.27,1.12-65.26,15-85.84,43.13-7.8,10.64-11.3,22.68-9.5,35.85.4,2.42,1,3.26,3.8,3.45,14.19.94,28.28,2.15,42.37,3.36,3.6.28,4.4,2.24,2.6,5.14-.7,1.21-1.3,2.52-1.9,3.82-5.69,16.06-17.39,27.26-32.88,35.48H313.46a8,8,0,0,1,2.2-1.21A65.24,65.24,0,0,0,345,386.18,53,53,0,0,0,355.64,367l-41.28-4.1c1,2.7,1.6,4.76,2.4,6.81,1,2.52,0,3.92-2.7,3.92a7.73,7.73,0,0,1-4.5-1.68c-2.69-2.05-5-4.39-7.69-6.53a4.59,4.59,0,0,0-2.9-1.12c-12.39,1.21-23.18,5.5-31.18,14.65a29.17,29.17,0,0,0-4.7,8.13c-2.7,6.53-5,13.25-7.39,19.88H244.6c4.7-6.16,4.8-13.26,5.3-20.35.5-8.4-3.3-14.29-11.19-18.3-19.89-10.18-39.88-8.31-59.76-.28-4.5,1.77-8.6,4.95-12.2,8.22S159.86,382.82,154,383c.9,1.21,1.4,2,1.9,2.61l16.49,21.29h-5.9ZM400.61,271c-27.09-38.74-37.68-80.29-24-126.31-25,4.11-47.07-2.24-68.85-10.36S266.39,115,251.5,97.24c-8.19,14.47-19.09,26.33-33.08,35-23.88,14.75-50.77,19.89-79,19.23-5-.09-10.09-1.21-15-1.77,3.1,6.35,6.9,12.42,9.09,18.86,1.9,5.79,3.5,12.13,2.7,17.92-2.6,20-12.89,36.88-26.88,51.82-2.6,2.8-5.4,5.41-7.8,7.74,4.7,2,9.1,3.64,13.3,5.61,9.79,4.66,17.38,11.85,24.18,19.69,12.59,14.38,19.89,31.18,24.69,49.11,1.19,4.48,1.59,9.24,2.39,14.28,1.9-1.12,3.6-2.05,5.2-3.08a57.78,57.78,0,0,1,32.88-9c16.79.47,32.68,4.2,48.37,9.52,16.79,5.7,31.78,14.1,46,24.09,2.4,1.77,5,3.36,8.1,5.51-.2-1.31-.3-1.87-.4-2.43-3.2-14.94-.3-28.94,8.19-41.83,14.19-21.56,35-35,60.66-42C383.42,273.22,392.31,272.38,400.61,271ZM294.07,360.23l.4-1.22-29.08-17.27V373.2A48.17,48.17,0,0,1,294.07,360.23Z" transform="translate(-92 -87)"/><path d="M172.35,406.81l-16.69-21.38a29.85,29.85,0,0,1-1.9-2.61c5.9-.09,9.1-3.45,12.79-6.72a43.66,43.66,0,0,1,12.2-8.22c19.88-8,39.87-9.89,59.76.28,7.89,4,11.69,9.81,11.19,18.3-.4,7.1-.5,14.29-5.3,20.35Z" transform="translate(-92 -87)" style="fill:#89ec52"/><path d="M255.5,406.81c2.4-6.63,4.69-13.25,7.39-19.88a30.45,30.45,0,0,1,4.7-8.12c8-9.15,18.79-13.45,31.18-14.66a4.59,4.59,0,0,1,2.9,1.12c2.6,2.05,5,4.48,7.69,6.53a9.69,9.69,0,0,0,4.5,1.69c2.7,0,3.7-1.5,2.7-3.93-.8-2.05-1.5-4.1-2.4-6.81l41.28,4.11A51.56,51.56,0,0,1,344.84,386a64.53,64.53,0,0,1-29.38,19.61c-.7.37-1.5.75-2.2,1.21Z" transform="translate(-92 -87)" style="fill:#89ec52"/><path d="M400.61,271c-8.3,1.4-17.09,2.24-25.39,4.48-25.68,6.91-46.57,20.45-60.66,42-8.49,13-11.39,26.89-8.19,41.82a24.33,24.33,0,0,0,.4,2.43c-3.1-2.05-5.6-3.73-8.1-5.51-14.19-10-29.28-18.39-46-24.08-15.59-5.23-31.58-9.06-48.37-9.52a57.91,57.91,0,0,0-32.88,9c-1.6.93-3.3,2-5.2,3.08-.8-5-1.2-9.8-2.39-14.28-4.8-17.84-12.2-34.73-24.69-49.11-6.8-7.75-14.39-15-24.18-19.7-4.2-2.05-8.7-3.64-13.3-5.6,2.4-2.33,5.2-5,7.8-7.75,14-14.94,24.28-31.74,26.88-51.81.7-5.79-.8-12.23-2.7-17.93-2.19-6.53-5.89-12.6-9.09-18.85,4.9.65,9.89,1.68,15,1.77,28.28.56,55.17-4.57,79.05-19.23a94.31,94.31,0,0,0,33.08-35c14.89,17.74,34.48,28.94,56.26,37.06s43.78,14.38,68.86,10.37C362.93,190.69,373.42,232.33,400.61,271Zm-74.46-34.82c.1-11.39-3-22.22-6.79-32.86a48.68,48.68,0,0,0-24.29-27.17c-12.19-6.26-25.48-9.06-39.37-10.08-11.2-.75-22.39-1.78-33.58.56-6.5,1.4-12.49,3.36-16.59,8.77-6.4,8.4-11.89,17.27-15.29,27.36-2.7,8-6.2,15.77-6.2,24.27,0,19.14,3.3,37,20.09,50.69,15.19,12.42,32.58,19.14,52.27,18.3,18.19-.84,35.38-5.51,49.47-18.11C319.16,266.22,325.85,252.78,326.15,236.16Z" transform="translate(-92 -87)" style="fill:#fef14e"/><path d="M326.15,236.16c-.3,16.62-7,30.06-20.18,41.73-14.19,12.6-31.28,17.27-49.47,18.11-19.79.93-37.18-5.88-52.37-18.3C187.34,264,184.14,246.24,184,227c0-8.59,3.6-16.34,6.2-24.27,3.3-10.09,8.89-18.86,15.29-27.36,4.1-5.41,10.09-7.47,16.59-8.77,11.09-2.34,22.38-1.4,33.58-.56,13.79.93,27.18,3.73,39.37,10.08a48.61,48.61,0,0,1,24.29,27.17C323.16,213.94,326.15,224.77,326.15,236.16Zm-87.94-65.63c-4.2.65-11.49,1.49-18.59,3.17a17.93,17.93,0,0,0-7.69,4.39c-2.4,2.24-3.9,5.32-5.9,7.94-14.19,18.57-21,38.83-14.79,61.61,1.7,6.16,3.6,12.7,7.29,17.93a62.13,62.13,0,0,0,27,21c19.68,8.31,39.67,6.44,58.86-1.4,6.8-2.8,12.49-8,18.49-12.42,9.59-7.18,14.49-17.08,16.69-28.1,2.4-12.32-.4-24.27-3.7-36.13-4.6-17.27-16.49-27.44-34.28-32.58C268.59,172.12,255,171.56,238.21,170.53Z" transform="translate(-92 -87)"/><path d="M238.21,170.53c16.79,1,30.38,1.49,43.47,5.32,17.79,5.13,29.58,15.31,34.28,32.58,3.2,11.95,6.2,23.9,3.7,36.13-2.2,11-7.1,20.82-16.69,28.1-5.9,4.48-11.59,9.71-18.49,12.42-19.19,7.84-39.18,9.61-58.86,1.4a62.15,62.15,0,0,1-27-21c-3.69-5.23-5.59-11.67-7.29-17.92-6.2-22.78.6-43,14.79-61.62,2-2.61,3.5-5.69,5.89-7.93a17,17,0,0,1,7.7-4.39C226.72,172.12,234,171.18,238.21,170.53Zm41.07,77c.3-5.42-1.7-7.1-7.39-6.44-1.3.09-2.7.09-4.1.18-9.29,1.22-18.79,2.52-28.08,3.92-3.1.38-3.9,2.15-2.6,4.67s2.3,4.86,3.6,7.1c5.79,9.43,15.89,13.16,25.58,9.61C275.69,263.23,278.68,256.14,279.28,247.55ZM245.2,223.93c-1.89-3-3-5.51-4.79-7.47-2.1-2.24-4.7-1.77-5.6,1.12a16.54,16.54,0,0,0-.2,7.66,4.56,4.56,0,0,0,5.7,3.64c1.9-.56,3.1-3,4.89-4.95Zm30.29-4.48c0-4.39-3-8.5-6-8.69-2.4-.09-4.2,2.15-4.3,5.05-.1,3.64,3.4,7.46,6.7,7.37,3-.09,3.5-2.05,3.6-3.73Z" transform="translate(-92 -87)" style="fill:#fef14e"/><path d="M245.2,223.93c-1.89,2-3,4.29-4.89,4.85a4.53,4.53,0,0,1-5.7-3.64,18,18,0,0,1,.2-7.65c.9-2.9,3.5-3.36,5.6-1.12C242.31,218.42,243.41,220.94,245.2,223.93Z" transform="translate(-92 -87)"/><path d="M275.49,219.54c-.1,1.68-.6,3.64-3.5,3.73-3.4.1-6.8-3.73-6.7-7.37,0-2.89,1.9-5.23,4.3-5C272.39,211,275.49,215.06,275.49,219.54Z" transform="translate(-92 -87)"/><polygon points="144.91 162.6 148.41 169.51 151.41 173.71 153.4 175.76 155.4 177.26 157.8 178.75 160.4 179.97 163.1 180.71 166.6 180.99 169.19 180.99 171.79 180.53 174.09 179.87 176.29 178.84 179.49 177.07 181.49 175.39 183.59 172.96 184.78 170.72 186.18 167.27 186.78 164.66 187.28 160.27 187.28 158.4 186.68 156.25 185.88 155.13 184.28 154.2 182.79 154.01 176.69 154.2 147.11 158.4 145.51 158.96 144.71 159.89 144.61 161.48 144.91 162.6"/><path d="M239.71,248.76" transform="translate(-92 -87)" style="fill:#fd733b"/><polygon points="149.21 162.13 151.6 167.18 154.4 170.72 157.4 173.9 161.4 176.51 163.9 177.54 166.2 177.82 168.4 177.82 170.69 177.54 172.69 176.88 175.39 175.48 178.09 173.9 180.29 171.75 181.89 169.14 182.99 165.5 183.88 162.13 184.28 160.08 183.38 157.93 181.09 156.53 148.71 160.92 149.21 162.13" style="fill:#fd733b"/></svg>