<svg id="图层_1" data-name="图层 1" xmlns="http://www.w3.org/2000/svg" width="512" height="512" viewBox="0 0 512 512"><path d="M144,512H0V0H512V512H360.11c20.81-11.9,36.58-28.14,44.29-51.34a29.43,29.43,0,0,1,2.48-5.45c2.44-4.17,1.28-6.93-3.48-7.36-19.06-1.71-38.12-3.45-57.2-4.85-3.69-.27-4.62-1.48-5.08-4.95-2.51-19,2.26-36.35,12.79-51.77,27.76-40.61,66.87-60.74,115.83-62.34,1.78-.06,3.52-1.1,5.27-1.68-.75-1.57-1.13-3.56-2.32-4.66-11.7-10.78-18.68-24.45-25-38.77C425,227.1,421,174.77,441.81,121.48c1.37-3.52-.92-5.21-3.19-6.25-1.05-.48-3.77.72-4.53,1.93-2.91,4.56-7,6.87-12.1,8.07-12.52,2.93-25.14,2.74-37.76,1.31-18.08-2.05-34.88-8.73-51.5-15.56-29.82-12.25-56.36-28.88-73.08-57.8-.42-.71-.85-1.62-1.51-1.94-1.27-.61-2.93-1.47-4-1.08s-1.56,2.17-2,3.45c-1.69,5.13-2.2,11-5,15.34-13,20.22-29.88,36.52-51.47,47.59a180.74,180.74,0,0,1-92.25,19.92C93,136,82,135.16,74.24,126.18c-.21-.24-.93,0-2.52,0,0,3.54-.5,7.16.25,10.5.3,1.35,3.45,1.92,5,3.17,1.81,1.41,4,2.9,4.88,4.87C86.53,155,91.52,165.21,95,175.9a38.72,38.72,0,0,1,1.06,18.21c-4.7,26.34-16.93,49.26-33.93,69.68-5.11,6.13-11,11.62-16.29,17.6-1.27,1.43-1.63,3.67-2.41,5.55,1.83.24,3.66.57,5.49.73,4.24.35,9.13-.63,12.58,1.18A143,143,0,0,1,85.41,304.1c17.55,14.24,28.78,33.17,36.38,54.11a262.1,262.1,0,0,1,10.6,37.27c2.1,10.35,1.42,21-5.66,30a15.46,15.46,0,0,0-2.53,5.4c-1.19,4.29,1.48,7.45,5.57,5.87a13.44,13.44,0,0,0,6.53-6.66,37.37,37.37,0,0,1,14.21-17c6.32-4,12.65-8.35,19.59-10.92a75.31,75.31,0,0,1,23.19-5c20.76-.72,40.48,5.08,60.11,11.23,7.32,2.29,11.26,5.45,12.65,13.88,2.31,14,1.49,27.81.05,41.69-.37,3.56-1.49,7-2.48,11.55-5.17-13.83-11.46-20.25-24.66-26.67-26-12.62-52.19-11.5-78.58-1.68-10,3.72-18.87,9.1-25.36,17.88A14.26,14.26,0,0,1,123.94,471c-6.64.47-7.2,2-3.28,7.58Q132.39,495.28,144,512Z" style="fill:#fff"/><path d="M144,512l-23.37-33.41c-3.92-5.56-3.36-7.11,3.28-7.58A14.26,14.26,0,0,0,135,465.12c6.49-8.78,15.38-14.16,25.36-17.88,26.39-9.82,52.61-10.94,78.58,1.68,13.2,6.42,19.49,12.84,24.66,26.67,1-4.5,2.11-8,2.48-11.55,1.44-13.88,2.26-27.64-.05-41.69-1.39-8.43-5.33-11.59-12.65-13.88-19.63-6.15-39.35-12-60.11-11.23a75.31,75.31,0,0,0-23.19,5c-6.94,2.57-13.27,6.92-19.59,10.92a37.37,37.37,0,0,0-14.21,17,13.44,13.44,0,0,1-6.53,6.66c-4.09,1.58-6.76-1.58-5.57-5.87a15.46,15.46,0,0,1,2.53-5.4c7.08-9.06,7.76-19.68,5.66-30a262.1,262.1,0,0,0-10.6-37.27c-7.6-20.94-18.83-39.87-36.38-54.11a143,143,0,0,0-23.82-15.29C58.14,287,53.25,288,49,287.63c-1.83-.16-3.66-.49-5.49-.73.78-1.88,1.14-4.12,2.41-5.55,5.3-6,11.18-11.47,16.29-17.6,17-20.42,29.23-43.34,33.93-69.68a38.72,38.72,0,0,0-1.06-18.21c-3.51-10.69-8.5-20.86-13.18-31.18-.9-2-3.07-3.46-4.88-4.87-1.6-1.25-4.75-1.82-5-3.17-.75-3.34-.25-7-.25-10.5,1.59,0,2.31-.2,2.52,0,7.76,9,18.73,9.8,29.16,10.28A180.74,180.74,0,0,0,195.7,116.5c21.59-11.07,38.46-27.37,51.47-47.59,2.82-4.37,3.33-10.21,5-15.34.42-1.28,1-3.12,2-3.45s2.75.47,4,1.08c.66.32,1.09,1.23,1.51,1.94,16.72,28.92,43.26,45.55,73.08,57.8,16.62,6.83,33.42,13.51,51.5,15.56,12.62,1.43,25.24,1.62,37.76-1.31,5.12-1.2,9.19-3.51,12.1-8.07.76-1.21,3.48-2.41,4.53-1.93,2.27,1,4.56,2.73,3.19,6.25C421,174.77,425,227.1,447.72,278.83c6.29,14.32,13.27,28,25,38.77,1.19,1.1,1.57,3.09,2.32,4.66-1.75.58-3.49,1.62-5.27,1.68-49,1.6-88.07,21.73-115.83,62.34-10.53,15.42-15.3,32.79-12.79,51.77.46,3.47,1.39,4.68,5.08,4.95,19.08,1.4,38.14,3.14,57.2,4.85,4.76.43,5.92,3.19,3.48,7.36a29.43,29.43,0,0,0-2.48,5.45C396.72,483.86,381,500.1,360.14,512h-18a14,14,0,0,1,2.85-1.84c16-5.58,29-15.16,39.63-28.32a77.22,77.22,0,0,0,14.28-27.68l-55.73-5.85c1.31,3.92,2.18,6.92,3.3,9.83,1.4,3.64,0,5.74-3.6,5.7a10.9,10.9,0,0,1-6.1-2.38c-3.64-2.89-6.83-6.33-10.36-9.36a6,6,0,0,0-3.89-1.64c-16.68,1.73-31.26,8-42.1,21.17a41.63,41.63,0,0,0-6.29,11.68c-3.59,9.47-6.71,19.12-10,28.69h-15c6.38-8.85,6.46-19.14,7.06-29.42.7-12.21-4.5-20.62-15.06-26.41-26.84-14.7-53.82-12-80.59-.37-6.07,2.64-11.63,7.14-16.44,11.8s-9.27,9.47-17.18,9.66c1.17,1.71,1.88,2.78,2.63,3.82L152,512ZM459.87,315.78c-36.54-55.87-50.77-116-32.31-182.41-33.72,5.86-63.53-3.27-92.85-15s-55.81-27.95-75.9-53.58c-11,20.94-25.7,38-44.73,50.54C181.84,136.6,145.59,144,107.45,143.15c-6.82-.15-13.62-1.67-20.22-2.53,4.22,9.17,9.32,17.91,12.26,27.33,2.58,8.26,4.66,17.5,3.64,25.9C99.62,222.7,85.71,247,66.83,268.63c-3.51,4-7.32,7.78-10.54,11.19,6.29,2.8,12.29,5.18,18,8.09,13.21,6.69,23.45,17.15,32.61,28.35,17,20.73,26.84,45.1,33.33,70.86,1.64,6.5,2.1,13.31,3.2,20.6,2.6-1.61,4.86-2.94,7-4.38,13.46-8.88,28.14-13.48,44.36-13,22.56.71,44.13,6.14,65.2,13.79,22.58,8.18,42.93,20.41,62.05,34.79,3.34,2.51,6.77,4.9,10.93,7.89-.3-1.91-.4-2.71-.55-3.5-4.33-21.62-.4-41.77,11.11-60.44,19.19-31.14,47.25-50.64,81.94-60.68C436.81,319,448.69,317.82,459.87,315.78ZM316.25,444.69l.65-1.67-39.25-24.93v45.34A61.92,61.92,0,0,1,316.25,444.69Z"/><path d="M152,512l-22.54-30.92c-.75-1-1.46-2.11-2.63-3.82,7.91-.19,12.31-5,17.18-9.66s10.37-9.16,16.44-11.8c26.77-11.61,53.75-14.33,80.59.37,10.56,5.79,15.76,14.2,15.06,26.41-.6,10.28-.68,20.57-7.06,29.42Z" style="fill:#89ec52"/><path d="M264.07,512c3.31-9.57,6.43-19.22,10-28.69a41.63,41.63,0,0,1,6.29-11.68c10.84-13.19,25.42-19.44,42.1-21.17a6,6,0,0,1,3.89,1.64c3.53,3,6.72,6.47,10.36,9.36a10.9,10.9,0,0,0,6.1,2.38c3.59,0,5-2.06,3.6-5.7-1.12-2.91-2-5.91-3.3-9.83l55.73,5.85a77.22,77.22,0,0,1-14.28,27.68C373.94,495,360.93,504.58,345,510.16a14,14,0,0,0-2.9,1.84Z" style="fill:#89ec52"/><path d="M459.87,315.78c-11.18,2-23.06,3.2-34.33,6.46-34.69,10-62.75,29.54-81.94,60.68-11.51,18.67-15.44,38.82-11.11,60.44.15.79.25,1.59.55,3.5-4.16-3-7.59-5.38-10.93-7.89-19.12-14.38-39.47-26.61-62.05-34.79-21.07-7.65-42.64-13.08-65.2-13.79-16.22-.51-30.9,4.09-44.36,13-2.18,1.44-4.44,2.77-7,4.38-1.1-7.29-1.56-14.1-3.2-20.6C133.81,361.41,123.94,337,107,316.31c-9.16-11.2-19.4-21.66-32.61-28.35-5.74-2.91-11.74-5.29-18-8.09,3.22-3.41,7-7.16,10.54-11.19,18.88-21.63,32.79-45.93,36.3-74.78,1-8.4-1.06-17.64-3.64-25.9-2.94-9.42-8-18.16-12.26-27.33,6.6.86,13.4,2.38,20.22,2.53,38.14.81,74.39-6.55,106.63-27.82,19-12.56,33.69-29.6,44.73-50.54,20.09,25.63,46.48,41.84,75.9,53.58s59.13,20.84,92.85,15C409.1,199.78,423.33,259.91,459.87,315.78ZM359.46,265.46c.07-16.46-4-32.06-9.19-47.43a68.94,68.94,0,0,0-32.78-39.34c-16.4-9.15-34.44-13.15-53.06-14.56-15.11-1.15-30.23-2.56-45.28.81-8.78,2-16.88,4.93-22.4,12.74-8.65,12.25-16.1,25-20.61,39.48-3.6,11.56-8.4,22.77-8.39,35.15,0,27.69,4.45,53.37,27.07,73.16,20.47,17.9,43.89,27.67,70.55,26.35,24.63-1.22,47.69-7.88,66.84-26.08C350,308.88,359.08,289.46,359.46,265.46Z" style="fill:#fef14e"/><path d="M359.46,265.46c-.38,24-9.51,43.42-27.25,60.28-19.15,18.2-42.21,24.86-66.84,26.08-26.66,1.32-50.08-8.45-70.55-26.35-22.62-19.79-27-45.47-27.07-73.16,0-12.38,4.79-23.59,8.39-35.15,4.51-14.47,12-27.23,20.61-39.48,5.52-7.81,13.62-10.76,22.4-12.74,15-3.37,30.17-2,45.28-.81,18.62,1.41,36.66,5.41,53.06,14.56A68.91,68.91,0,0,1,350.27,218C355.42,233.4,359.53,249,359.46,265.46ZM240.78,170.68c-5.61,1-15.5,2.25-25.15,4.55-3.78.9-7.58,3.53-10.37,6.36-3.2,3.25-5.17,7.67-7.87,11.45-19.18,26.87-28.33,56.09-19.93,89,2.28,8.93,4.91,18.34,9.89,25.87a84.88,84.88,0,0,0,36.42,30.37c26.59,12,53.51,9.3,79.42-2,9.17-4,16.9-11.57,24.87-18,12.88-10.43,19.55-24.69,22.53-40.57,3.34-17.78-.63-35-4.95-52.25-6.25-24.93-22.21-39.64-46.16-47.06C281.75,172.91,263.45,172.21,240.78,170.68Z"/><path d="M240.78,170.68c22.67,1.53,41,2.23,58.7,7.72,23.95,7.42,39.91,22.13,46.16,47.06,4.32,17.25,8.29,34.47,4.95,52.25-3,15.88-9.65,30.14-22.53,40.57-8,6.46-15.7,14-24.87,18-25.91,11.27-52.83,13.94-79.42,2a84.88,84.88,0,0,1-36.42-30.37c-5-7.53-7.61-16.94-9.89-25.87-8.4-32.91.75-62.13,19.93-89,2.7-3.78,4.67-8.2,7.87-11.45,2.79-2.83,6.59-5.46,10.37-6.36C225.28,172.93,235.17,171.65,240.78,170.68ZM296.21,281.9c.43-7.77-2.29-10.27-10-9.27-1.8.24-3.66.07-5.47.33q-18.94,2.75-37.89,5.62c-4.23.64-5.17,3.14-3.5,6.83,1.58,3.47,3.05,7,4.94,10.33,7.79,13.61,21.43,19.05,34.48,13.88C291.39,304.65,295.48,294.32,296.21,281.9Zm-45.89-34.09c-2.48-4.27-4-8-6.46-10.8-2.84-3.24-6.36-2.54-7.58,1.63a24.91,24.91,0,0,0-.27,11c.66,3.83,4.14,6.3,7.68,5.19,2.48-.78,4.13-4.23,6.63-7Zm40.78-6.46c0-6.4-4.1-12.34-8.08-12.53-3.17-.14-5.73,3.11-5.78,7.34-.06,5.24,4.57,10.77,9.13,10.62,3.95-.13,4.63-3,4.73-5.43Z" style="fill:#fef14e"/><path d="M250.32,247.81c-2.5,2.79-4.15,6.24-6.63,7-3.54,1.11-7-1.36-7.68-5.19a24.91,24.91,0,0,1,.27-11c1.22-4.17,4.74-4.87,7.58-1.63C246.35,239.83,247.84,243.54,250.32,247.81Z"/><path d="M291.1,241.35c-.09,2.39-.78,5.3-4.73,5.43-4.56.15-9.19-5.38-9.13-10.62.05-4.23,2.61-7.48,5.78-7.34C287,229,291.1,235,291.1,241.35Z"/><polygon points="239.15 284.94 243.8 294.85 247.83 300.9 250.57 303.85 253.19 306.09 256.36 308.18 260 309.89 263.61 310.97 268.39 311.55 271.92 311.37 275.3 310.74 278.37 309.77 281.41 308.44 285.7 305.76 288.41 303.33 291.17 299.84 292.92 296.65 294.75 291.58 295.56 287.83 296.23 281.47 296.25 278.81 295.47 275.69 294.37 274.08 292.21 272.83 290.22 272.46 282.02 272.84 241.98 278.75 239.91 279.65 238.81 281.02 238.57 283.2 239.15 284.94"/><path d="M242.92,283.59" style="fill:#fd733b"/><polygon points="244.93 284.23 248.06 291.48 251.94 296.63 255.88 301.17 261.34 304.99 264.67 306.5 267.76 306.93 270.73 306.93 273.88 306.38 276.61 305.48 280.25 303.48 283.88 301.17 286.79 298.08 288.98 294.32 290.49 288.99 291.64 284.23 292.19 281.17 290.98 278.08 287.94 276.14 244.19 282.38 244.93 284.23" style="fill:#fd733b"/></svg>