<?xml version="1.0" encoding="utf-8"?>
<!-- Generator: Adobe Illustrator 25.4.1, SVG Export Plug-In . SVG Version: 6.00 Build 0)  -->
<svg version="1.1" id="图层_1" xmlns="http://www.w3.org/2000/svg" xmlns:xlink="http://www.w3.org/1999/xlink" x="0px" y="0px"
	 viewBox="0 0 512 512" style="enable-background:new 0 0 512 512;" xml:space="preserve">
<style type="text/css">
	.st0{fill:#89EC52;}
	.st1{fill:#FEF14E;}
	.st2{fill:#FD733B;}
</style>
<g>
	<path d="M167.2,418l-17.4-24.8c-2.9-4.2-2.5-5.3,2.4-5.6c3.3-0.1,6.3-1.7,8.2-4.4c4.8-6.5,11.4-10.5,18.8-13.3
		c19.6-7.3,39-8.1,58.3,1.3c9.8,4.7,14.5,9.5,18.3,19.8c0.7-3.3,1.6-5.9,1.9-8.5c1-10.3,1.7-20.5,0-30.9c-1-6.2-3.9-8.6-9.3-10.3
		c-14.5-4.5-29.2-8.9-44.6-8.3c-5.9,0.3-11.7,1.6-17.2,3.7c-5.1,1.9-9.9,5.1-14.5,8.1c-4.7,3-8.4,7.4-10.5,12.6
		c-1,2.2-2.7,3.9-4.8,5c-3,1.2-5-1.2-4.2-4.4c0.4-1.4,1-2.8,1.9-4c5.3-6.7,5.8-14.6,4.2-22.2c-1.9-9.4-4.6-18.6-7.9-27.7
		c-5.6-15.5-13.9-29.6-27-40.1c-5.5-4.4-11.4-8.2-17.7-11.3c-2.5-1.4-6.2-0.7-9.3-1c-1.3-0.1-2.7-0.4-4.1-0.5c0.6-1.4,0.8-3,1.8-4.1
		c3.9-4.4,8.3-8.5,12.1-13.1c12.6-15.1,21.7-32.1,25.1-51.7c0.8-4.5,0.5-9.1-0.8-13.5c-2.6-7.9-6.3-15.5-9.8-23.1
		c-0.7-1.5-2.3-2.6-3.6-3.6c-1.2-0.9-3.6-1.3-3.7-2.4c-0.6-2.4-0.1-5.2-0.1-7.8c1.2,0,1.7-0.1,1.9,0c5.8,6.7,13.9,7.3,21.7,7.6
		c23.7,1.2,47.3-3.9,68.4-14.8c16-8.2,28.6-20.3,38.2-35.3c2.1-3.3,2.4-7.6,3.7-11.3c0.3-1,0.7-2.3,1.5-2.6c0.7-0.3,2,0.4,3,0.8
		c0.5,0.2,0.8,0.9,1.1,1.4c12.4,21.4,32.1,33.7,54.2,42.9c12.3,5,24.8,10,38.2,11.6c9.3,1,18.7,1.2,28-1c3.8-0.9,6.8-2.6,9-6
		c0.6-0.9,2.6-1.8,3.3-1.4c1.7,0.7,3.4,2,2.4,4.6c-15.4,39.5-12.5,78.4,4.4,116.7c4.7,10.6,9.9,20.8,18.5,28.8
		c0.9,0.8,1.2,2.3,1.7,3.5c-1.3,0.4-2.6,1.2-3.9,1.3c-36.3,1.2-65.3,16.1-85.9,46.2c-7.8,11.4-11.3,24.3-9.5,38.4
		c0.4,2.6,1,3.5,3.8,3.7c14.2,1,28.3,2.3,42.4,3.6c3.6,0.3,4.4,2.4,2.6,5.5c-0.7,1.3-1.3,2.7-1.9,4.1c-5.7,17.2-17.4,29.2-32.9,38
		h-13.3c0.7-0.5,1.3-1,2.2-1.3c11.9-4.2,21.5-11.3,29.4-21c4.9-6.1,8.5-13.1,10.6-20.5l-41.3-4.4c1,2.9,1.6,5.1,2.4,7.3
		c1,2.7,0,4.2-2.7,4.2c-1.6-0.1-3.3-0.7-4.5-1.8c-2.7-2.2-5-4.7-7.7-7c-0.8-0.7-1.8-1.2-2.9-1.2c-12.4,1.3-23.2,5.9-31.2,15.7
		c-2,2.6-3.6,5.6-4.7,8.7c-2.7,7-5,14.2-7.4,21.3h-11.1c4.7-6.6,4.8-14.2,5.3-21.8c0.5-9-3.3-15.3-11.2-19.6
		c-19.9-10.9-39.9-8.9-59.8-0.3c-4.5,1.9-8.6,5.3-12.2,8.8s-6.9,7-12.8,7.2c0.9,1.3,1.4,2.1,1.9,2.8l16.5,22.8H167.2z M401.5,272.5
		c-27.1-41.5-37.7-86-24-135.3c-25,4.4-47.1-2.4-68.9-11.1c-21.8-8.7-41.4-20.7-56.3-39.7c-8.2,15.5-19.1,28.2-33.1,37.5
		c-23.9,15.8-50.8,21.3-79.1,20.6c-5-0.1-10.1-1.3-15-1.9c3.1,6.8,6.9,13.3,9.1,20.2c1.9,6.2,3.5,13,2.7,19.2
		c-2.6,21.4-12.9,39.5-26.9,55.5c-2.6,3-5.4,5.8-7.8,8.3c4.7,2.1,9.1,3.9,13.3,6c9.8,5,17.4,12.7,24.2,21.1
		c12.6,15.4,19.9,33.4,24.7,52.6c1.2,4.8,1.6,9.9,2.4,15.3c1.9-1.2,3.6-2.2,5.2-3.3c10-6.6,20.8-10,32.9-9.6
		c16.8,0.5,32.7,4.5,48.4,10.2c16.8,6.1,31.8,15.1,46,25.8c2.4,1.9,5,3.6,8.1,5.9c-0.2-1.4-0.3-2-0.4-2.6c-3.2-16-0.3-31,8.2-44.8
		c14.2-23.1,35-37.5,60.7-45C384.3,274.9,393.2,274,401.5,272.5z M294.9,368.1l0.4-1.3l-29.1-18.5V382
		C273.9,374.1,284.1,369.2,294.9,368.1z"/>
	<path class="st0" d="M173.1,418l-16.7-22.9c-0.6-0.7-1.1-1.6-1.9-2.8c5.9-0.1,9.1-3.7,12.8-7.2c3.6-3.5,7.7-6.8,12.2-8.8
		c19.9-8.6,39.9-10.6,59.8,0.3c7.9,4.3,11.7,10.5,11.2,19.6c-0.4,7.6-0.5,15.3-5.3,21.8H173.1z"/>
	<path class="st0" d="M256.3,418c2.4-7.1,4.7-14.2,7.4-21.3c1.1-3.1,2.7-6,4.7-8.7c8-9.8,18.8-14.4,31.2-15.7
		c1.1,0.1,2.1,0.4,2.9,1.2c2.6,2.2,5,4.8,7.7,7c1.3,1,2.9,1.6,4.5,1.8c2.7,0,3.7-1.6,2.7-4.2c-0.8-2.2-1.5-4.4-2.4-7.3l41.3,4.4
		c-2.1,7.5-5.7,14.5-10.6,20.5c-7.9,9.8-17.5,16.8-29.4,21c-0.7,0.4-1.5,0.8-2.2,1.3L256.3,418L256.3,418z"/>
	<path class="st1" d="M401.5,272.5c-8.3,1.5-17.1,2.4-25.4,4.8c-25.7,7.4-46.6,21.9-60.7,45c-8.5,13.9-11.4,28.8-8.2,44.8
		c0.1,0.6,0.1,1.2,0.4,2.6c-3.1-2.2-5.6-4-8.1-5.9c-14.2-10.7-29.3-19.7-46-25.8c-15.6-5.6-31.6-9.7-48.4-10.2
		c-12-0.4-22.9,3-32.9,9.6c-1.6,1-3.3,2.1-5.2,3.3c-0.8-5.4-1.2-10.5-2.4-15.3c-4.8-19.1-12.2-37.2-24.7-52.6
		c-6.8-8.3-14.4-16.1-24.2-21.1c-4.2-2.2-8.7-3.9-13.3-6c2.4-2.5,5.2-5.3,7.8-8.3c14-16,24.3-34,26.9-55.5
		c0.7-6.2-0.8-13.1-2.7-19.2c-2.2-7-5.9-13.5-9.1-20.2c4.9,0.7,9.9,1.8,15,1.9c28.3,0.6,55.2-4.9,79.1-20.6
		c14.1-9.3,25-22,33.1-37.5c14.9,19,34.5,31,56.3,39.7s43.8,15.4,68.9,11.1C363.8,186.5,374.3,231.1,401.5,272.5z M327,235.2
		c0.1-12.2-3-23.8-6.8-35.2c-4.1-12.5-12.8-22.9-24.3-29.1c-12.2-6.7-25.5-9.7-39.4-10.8c-11.2-0.8-22.4-1.9-33.6,0.6
		c-6.5,1.5-12.5,3.6-16.6,9.4c-6.4,9-11.9,18.5-15.3,29.3c-2.7,8.6-6.2,16.9-6.2,26c0,20.5,3.3,39.6,20.1,54.3
		c15.2,13.3,32.6,20.5,52.3,19.6c18.2-0.9,35.4-5.9,49.5-19.4C320,267.4,326.7,253,327,235.2z"/>
	<path d="M327,235.2c-0.3,17.8-7,32.2-20.2,44.7c-14.2,13.5-31.3,18.5-49.5,19.4c-19.8,1-37.2-6.3-52.4-19.6
		c-16.8-14.7-20-33.7-20.1-54.3c0-9.2,3.6-17.5,6.2-26c3.3-10.8,8.9-20.2,15.3-29.3c4.1-5.8,10.1-8,16.6-9.4
		c11.1-2.5,22.4-1.5,33.6-0.6c13.8,1,27.2,4,39.4,10.8c11.6,6.2,20.2,16.7,24.3,29.1C324,211.4,327,223,327,235.2z M239,164.9
		c-4.2,0.7-11.5,1.6-18.6,3.4c-2.8,0.7-5.6,2.6-7.7,4.7c-2.4,2.4-3.9,5.7-5.9,8.5c-14.2,19.9-21,41.6-14.8,66
		c1.7,6.6,3.6,13.6,7.3,19.2c6.7,9.9,16,17.7,27,22.5c19.7,8.9,39.7,6.9,58.9-1.5c6.8-3,12.5-8.6,18.5-13.3
		c9.6-7.7,14.5-18.3,16.7-30.1c2.4-13.2-0.4-26-3.7-38.7c-4.6-18.5-16.5-29.4-34.3-34.9C269.4,166.6,255.8,166,239,164.9z"/>
	<path class="st1" d="M239,164.9c16.8,1.1,30.4,1.6,43.5,5.7c17.8,5.5,29.6,16.4,34.3,34.9c3.2,12.8,6.2,25.6,3.7,38.7
		c-2.2,11.8-7.1,22.3-16.7,30.1c-5.9,4.8-11.6,10.4-18.5,13.3c-19.2,8.4-39.2,10.3-58.9,1.5c-11-4.8-20.3-12.6-27-22.5
		c-3.7-5.6-5.6-12.5-7.3-19.2c-6.2-24.4,0.6-46.1,14.8-66c2-2.8,3.5-6.1,5.9-8.5c2.1-2.1,4.9-4.1,7.7-4.7
		C227.5,166.6,234.8,165.6,239,164.9z M280.1,247.4c0.3-5.8-1.7-7.6-7.4-6.9c-1.3,0.1-2.7,0.1-4.1,0.2c-9.3,1.3-18.8,2.7-28.1,4.2
		c-3.1,0.4-3.9,2.3-2.6,5c1.2,2.6,2.3,5.2,3.6,7.6c5.8,10.1,15.9,14.1,25.6,10.3C276.5,264.2,279.5,256.6,280.1,247.4z M246,222.1
		c-1.9-3.2-3-5.9-4.8-8c-2.1-2.4-4.7-1.9-5.6,1.2c-0.7,2.7-0.7,5.5-0.2,8.2c0.5,2.8,3,4.7,5.7,3.9C243,226.8,244.2,224.2,246,222.1
		L246,222.1z M276.3,217.3c0-4.7-3-9.1-6-9.3c-2.4-0.1-4.2,2.3-4.3,5.4c-0.1,3.9,3.4,8,6.7,7.9C275.7,221.2,276.2,219.1,276.3,217.3
		L276.3,217.3z"/>
	<path d="M246,222.1c-1.9,2.1-3,4.6-4.9,5.2c-2.6,0.8-5.2-1-5.7-3.9c-0.5-2.7-0.4-5.5,0.2-8.2c0.9-3.1,3.5-3.6,5.6-1.2
		C243.1,216.2,244.2,218.9,246,222.1z"/>
	<path d="M276.3,217.4c-0.1,1.8-0.6,3.9-3.5,4c-3.4,0.1-6.8-4-6.7-7.9c0-3.1,1.9-5.6,4.3-5.4C273.2,208.2,276.3,212.6,276.3,217.4z"
		/>
	<polygon points="237.7,249.6 241.2,257 244.2,261.5 246.2,263.7 248.2,265.3 250.6,266.9 253.2,268.2 255.9,269 259.4,269.3 
		262,269.3 264.6,268.8 266.9,268.1 269.1,267 272.3,265.1 274.3,263.3 276.4,260.7 277.6,258.3 279,254.6 279.6,251.8 280.1,247.1 
		280.1,245.1 279.5,242.8 278.7,241.6 277.1,240.6 275.6,240.4 269.5,240.6 239.9,245.1 238.3,245.7 237.5,246.7 237.4,248.4 	"/>
	<path class="st2" d="M240.5,248.7"/>
	<polygon class="st2" points="242,249.1 244.4,254.5 247.2,258.3 250.2,261.7 254.2,264.5 256.7,265.6 259,265.9 261.2,265.9 
		263.5,265.6 265.5,264.9 268.2,263.4 270.9,261.7 273.1,259.4 274.7,256.6 275.8,252.7 276.7,249.1 277.1,246.9 276.2,244.6 
		273.9,243.1 241.5,247.8 	"/>
</g>
</svg>
